<?xml version="1.0" standalone="no"?>
<!DOCTYPE svg PUBLIC "-//W3C//DTD SVG 20010904//EN"
 "http://www.w3.org/TR/2001/REC-SVG-20010904/DTD/svg10.dtd">
<svg version="1.0" xmlns="http://www.w3.org/2000/svg"
 width="700.000000pt" height="700.000000pt" viewBox="0 0 700.000000 700.000000"
 preserveAspectRatio="xMidYMid meet">
<metadata>
Created by potrace 1.11, written by Peter Selinger 2001-2013
</metadata>
<g transform="translate(0.000000,700.000000) scale(0.100000,-0.100000)"
fill="#000000" stroke="none">
<path d="M756 6984 c-337 -61 -611 -339 -665 -675 -15 -89 -15 -5529 0 -5618
55 -341 329 -616 674 -676 77 -13 411 -15 2735 -15 2928 0 2739 -4 2906 64
263 107 459 350 503 627 15 89 15 5529 0 5618 -55 341 -329 616 -674 676 -128
22 -5356 21 -5479 -1z m5339 -524 c114 -43 194 -107 249 -199 72 -118 66 121
66 -2767 0 -2526 -1 -2604 -19 -2663 -44 -141 -145 -243 -296 -301 -35 -13
-342 -15 -2565 -17 -1680 -2 -2543 0 -2579 7 -124 23 -241 103 -305 209 -71
117 -66 -105 -66 2766 0 2871 -5 2649 66 2766 61 102 180 186 295 208 24 5
1178 8 2579 7 2234 -1 2540 -3 2575 -16z"/>
<path d="M973 6144 c-18 -9 -42 -31 -53 -49 -20 -32 -20 -47 -20 -2600 0
-2557 0 -2568 20 -2600 44 -71 -184 -65 2580 -65 l2493 0 34 21 c69 43 63
-188 63 2644 0 2832 6 2601 -63 2644 l-34 21 -2494 0 c-2265 0 -2497 -2 -2526
-16z m2631 -774 c500 -32 828 -151 1060 -386 237 -239 347 -565 315 -939 -46
-542 -337 -907 -866 -1084 -239 -80 -517 -117 -818 -108 -99 3 -188 9 -197 12
-17 7 -18 -32 -20 -686 l-3 -694 -427 -3 -428 -2 0 1909 0 1909 78 11 c171 26
474 52 699 60 351 12 432 12 607 1z"/>
<path d="M3265 4710 c-55 -5 -118 -13 -140 -17 l-40 -9 -3 -571 -2 -570 57 -6
c147 -16 265 -18 353 -8 319 39 518 177 597 416 23 69 26 97 26 205 1 135 -16
205 -69 297 -119 202 -397 296 -779 263z"/>
</g>
</svg>
