<?xml version="1.0" standalone="no"?>
<!DOCTYPE svg PUBLIC "-//W3C//DTD SVG 20010904//EN"
 "http://www.w3.org/TR/2001/REC-SVG-20010904/DTD/svg10.dtd">
<svg version="1.0" xmlns="http://www.w3.org/2000/svg"
 width="700.000000pt" height="700.000000pt" viewBox="0 0 700.000000 700.000000"
 preserveAspectRatio="xMidYMid meet">
<metadata>
Created by potrace 1.11, written by Peter Selinger 2001-2013
</metadata>
<g transform="translate(0.000000,700.000000) scale(0.100000,-0.100000)"
fill="#000000" stroke="none">
<path d="M774 6989 c-337 -56 -610 -318 -678 -651 -14 -69 -16 -358 -16 -2838
0 -2480 2 -2769 16 -2838 69 -337 342 -596 686 -652 87 -14 5349 -14 5436 0
344 56 617 315 686 652 14 69 16 358 16 2838 0 2480 -2 2769 -16 2838 -69 337
-342 596 -686 652 -78 12 -5368 12 -5444 -1z m5260 -519 c171 -28 317 -161
361 -330 13 -51 15 -385 15 -2647 0 -2466 -1 -2592 -18 -2654 -21 -76 -77
-164 -136 -215 -54 -48 -149 -92 -222 -104 -80 -13 -4998 -13 -5078 0 -174 28
-322 165 -362 335 -21 93 -21 5200 1 5285 43 164 190 302 352 330 70 11 5015
12 5087 0z"/>
<path d="M963 6140 c-69 -41 -63 191 -63 -2647 0 -2529 0 -2568 20 -2600 41
-68 -183 -63 2575 -63 2758 0 2534 -5 2575 63 20 32 20 71 20 2600 0 2838 6
2606 -63 2647 -32 20 -70 20 -2532 20 -2462 0 -2500 0 -2532 -20z m2617 -770
c328 -18 552 -66 759 -161 438 -203 679 -636 640 -1151 -48 -645 -458 -1054
-1174 -1172 -151 -25 -380 -39 -535 -32 -80 4 -155 9 -167 12 l-23 6 -2 -693
-3 -694 -427 -3 -428 -2 0 1908 0 1909 118 16 c263 37 500 52 1012 65 30 1
134 -3 230 -8z"/>
<path d="M3285 4713 c-22 -2 -77 -8 -122 -14 l-83 -11 0 -573 0 -572 47 -7
c454 -62 809 67 934 339 55 122 72 276 44 410 -66 312 -362 467 -820 428z"/>
</g>
</svg>
