<?xml version="1.0" encoding="UTF-8"?>
<svg enable-background="new 0 0 100 100" fill="#000000" version="1.1" viewBox="0 0 100 100" xml:space="preserve" xmlns="http://www.w3.org/2000/svg" xmlns:cc="http://creativecommons.org/ns#" xmlns:dc="http://purl.org/dc/elements/1.1/" xmlns:rdf="http://www.w3.org/1999/02/22-rdf-syntax-ns#"><metadata><rdf:RDF><cc:Work rdf:about=""><dc:format>image/svg+xml</dc:format><dc:type rdf:resource="http://purl.org/dc/dcmitype/StillImage"/><dc:title/></cc:Work></rdf:RDF></metadata><line x1="29.729" x2="29.673" y1="66.651" y2="66.797"/><line x1="25.639" x2="25.524" y1="67.522" y2="67.631"/><polygon points="4.841 50.213 4.841 50.206 4.841 50.198"/><rect transform="matrix(.8189 .5739 -.5739 .8189 31.454 -32.164)" x="66.621" y="33.574" width=".157" height=".384"/><line x1="31.386" x2="31.458" y1="63.402" y2="63.543"/><rect transform="matrix(.5704 .8214 -.8214 .5704 83.395 -26.154)" x="66.507" y="66.567" width=".385" height=".157"/><path d="m68.137 33.246c-0.568 0.237-1.326-0.285-1.562-0.521-0.221-0.22-0.837-2.099-1.137-3.33-0.016 0-0.033 0-0.048-0.016-0.315-0.032-0.315 0.157-0.253 0.411 0.079 0.268 0.68 2.099 0.757 2.415 0.081 0.331 0.175 0.504 0.381 0.615 0.204 0.126 0.488 0.426 0.536 0.82 0.047 0.3-0.048 0.552-0.19 0.774-0.077 0.111-0.094 0.237 0.063 0.252 0.616 0.016 1.278-0.095 1.483-0.3 0.127-0.141 0.095-0.79-0.03-1.12z"/><path d="m68.137 67.15c-0.568-0.223-1.326 0.3-1.562 0.521-0.221 0.22-0.837 2.114-1.137 3.345h-0.048c-0.315 0.048-0.315-0.141-0.253-0.41 0.079-0.268 0.68-2.083 0.757-2.415 0.081-0.331 0.175-0.489 0.381-0.614 0.204-0.127 0.488-0.427 0.536-0.821 0.047-0.285-0.048-0.537-0.19-0.758-0.077-0.127-0.094-0.252 0.063-0.252 0.616-0.032 1.278 0.095 1.483 0.3 0.127 0.142 0.095 0.789-0.03 1.104z"/><path d="m12.376 60.164c-0.27121-0.05371-0.52069-0.21708-0.70169-0.45951-0.1373-0.1839-0.43242-1.5384-0.62265-2.8577-0.65051-4.5116-0.59102-9.9104 0.15705-14.254 0.28458-1.6523 0.40455-1.9833 0.80372-2.2178 0.21833-0.12827 0.31352-0.13098 4.5988-0.13098 4.091 0 4.3896 0.0075 4.5878 0.11574 0.11659 0.06366 0.2709 0.20844 0.34291 0.32175 0.12036 0.18938 0.12801 0.27615 0.09484 1.0747-0.01985 0.4778-0.06501 1.2783-0.10037 1.779-0.25834 3.6586-0.24419 9.8876 0.03142 13.826 0.15835 2.2628 0.13746 2.4133-0.37297 2.686l-0.27216 0.14542-4.1506 0.0098c-2.2828 0.0054-4.261-0.01207-4.3961-0.03881z" fill="#fff" stroke="#fff" stroke-width="1.0591"/><path d="m72.885 64.698c-1.7202-0.22378-9.1826-1.2942-10.535-1.5113-1.0484-0.1682-1.4942-0.41461-1.6918-0.93505-0.09931-0.26168-0.08947-0.98327 0.02764-2.027 0.13234-1.1795 0.34029-3.9279 0.41871-5.5341 0.22376-4.5826 0.11268-8.9501-0.35081-13.793-0.19214-2.0077-0.19864-2.4918-0.03814-2.8413 0.23182-0.50483 0.62336-0.69172 1.8213-0.86933 8.4554-1.2536 11.703-1.6879 12.697-1.6977 1.1243-0.0111 1.2315 0.09582 2.0788 2.0748 1.8311 4.2766 2.4824 7.9979 2.3722 13.555-0.10042 5.0662-0.8565 8.5378-2.7258 12.516-0.3535 0.75224-0.55835 1.0342-0.86944 1.1967-0.28249 0.14758-1.4033 0.10092-3.2046-0.13341z" fill="#fff" stroke="#fff" stroke-width="1.0591"/><path d="m47.624 36.313c0.18086-0.31601 1.178-1.8265 1.3439-2.0357 0.07948-0.10026 0.38173-0.11699 3.203-0.17723 1.7134-0.03659 5.6483-0.08567 8.7442-0.10908l5.6289-0.04256-0.32329 0.41101-0.32329 0.41101-1.4124 0.2084c-6.3945 0.9435-11.717 1.4921-15.598 1.6075l-1.4441 0.04297z" fill="#fff" stroke="#fff" stroke-width="1.0591"/><path d="m35.181 36.609-4.7254-0.0328-0.57542-0.85536c-0.31648-0.47045-0.56403-0.86676-0.5501-0.88068 0.06394-0.06394 6.576-0.34311 11.22-0.481 1.2033-0.03573 2.7711-0.08306 3.4838-0.10517l1.2959-0.04021-0.31029 0.77381c-0.17066 0.42559-0.37136 0.97886-0.446 1.2295l-0.1357 0.45567-2.2656-0.01546c-1.2461-0.0085-4.392-0.03022-6.991-0.04826z" fill="#fff" stroke="#fff" stroke-width="1.0591"/><path d="m25.427 36.437c-2.6552-0.1021-3.9407-0.17071-4.019-0.21451-0.1075-0.06016 0.0341-0.10418 1.1272-0.35038 1.1406-0.25691 2.544-0.43779 3.1705-0.40862 0.51366 0.02392 0.62415 0.05555 1.3944 0.39925 0.4601 0.2053 0.89366 0.42807 0.96346 0.49504 0.12468 0.11962 0.10658 0.12154-1.0296 0.10916-0.63608-0.0069-1.3592-0.0204-1.607-0.02992z" fill="#fff" stroke="#fff" stroke-width="1.0591"/><path d="m24.294 64.856c-0.9364-0.13307-2.8181-0.54566-2.9106-0.63819-0.07695-0.07695 0.47638-0.12107 2.4357-0.19419 3.7054-0.13828 4.2609-0.14817 4.3052-0.07659 0.04922 0.07964-0.24399 0.23735-1.2807 0.68889-0.86053 0.3748-1.2339 0.40703-2.5495 0.22008z" fill="#fff" stroke="#fff" stroke-width="1.0591"/><path d="m42.898 66.103c-0.26544-0.0093-1.5396-0.04819-2.8314-0.08644-4.1812-0.1238-10.332-0.40062-10.4-0.46803-0.03068-0.03068 0.90902-1.4503 1.0706-1.6173 0.11545-0.11937 0.31739-0.12304 7.0823-0.1287l6.9635-0.0058 0.17533 0.54698c0.20109 0.62735 0.47418 1.3466 0.61378 1.6166l0.09579 0.18524-1.1439-0.01279c-0.62913-7e-3 -1.361-0.02039-1.6265-0.02968z" fill="#fff" stroke="#fff" stroke-width="1.0591"/><path d="m58.021 66.392c-2.5306-0.02948-5.5851-0.07546-6.7879-0.10216l-2.1869-0.04856-0.36033-0.50412c-0.38209-0.53456-1.1338-1.7173-1.1983-1.8853-0.03416-0.08903 0.07458-0.09541 0.98429-0.05781 4.7721 0.19728 8.5574 0.56886 14.826 1.4553 1.2564 0.17769 2.3682 0.34428 2.4707 0.37021 0.12786 0.03236 0.276 0.1725 0.47249 0.447l0.28624 0.39986-1.9525-0.01045c-1.0739-0.0057-4.023-0.03457-6.5536-0.06406z" fill="#fff" stroke="#fff" stroke-width="1.0591"/><path d="m93.126 41.439c-0.078325-0.12673-0.93292-0.6502-1.6113-0.98698-0.89544-0.44453-1.6533-0.7444-2.9923-1.184-1.0267-0.33705-1.5124-0.57062-1.5861-0.76269-0.03742-0.09751-2.0376-1.9522-2.6926-2.4967-0.46472-0.38634-0.54284-0.48225-0.54552-0.66971-0.0031-0.2144 0.18116-0.23466 1.6977-0.18671 2.641 0.08349 3.8518 0.24428 4.6276 0.61451 0.93282 0.4452 1.8074 1.6338 2.5922 3.523 0.26274 0.63248 0.73301 1.9965 0.73301 2.1261 0 0.09587-0.16703 0.11327-0.22269 0.0232z" fill="#fff" stroke="#fff" stroke-width="1.0591"/><path d="m83.732 65.186c-0.09644-0.15605 0.03421-0.38177 0.39733-0.68645 0.50926-0.42729 1.576-1.4037 2.4279-2.2224 0.39058-0.37535 0.77604-0.71702 0.85658-0.75926 0.08054-0.04224 0.51491-0.19437 0.96525-0.33807 1.8643-0.59487 3.5741-1.3616 4.4334-1.988 0.28549-0.20813 0.45636-0.29508 0.49802-0.25342 0.07821 0.07822-0.10098 0.65874-0.58577 1.8977-0.58774 1.502-1.1524 2.4597-1.8815 3.191-0.89962 0.90238-1.8318 1.1118-5.3194 1.1952-1.334 0.0319-1.7549 0.02337-1.7918-0.03631z" fill="#fff" stroke="#fff" stroke-width="1.0591"/><path d="m93.817 36.576c-1.8-3.394-11.554-4.135-16.021-4.183-2.162-0.032-4.687 0.189-7.671 0.173-0.593-1e-3 -1.198-2e-3 -1.815-3e-3 -0.068-0.135-0.219-0.388-0.402-0.695-0.268-0.447-0.601-1.002-0.822-1.438-0.424-0.797-0.961-1.022-1.637-1.115-5e-3 0-0.01 1e-3 -0.014 2e-3 -0.012-8e-3 -0.023-0.016-0.038-0.018-0.156-0.015-0.257 0.016-0.316 0.092-0.082 0.106-0.058 0.262-0.019 0.418 0.029 0.097 0.125 0.4 0.242 0.76 0.195 0.613 0.465 1.453 0.515 1.651 0.031 0.129 0.065 0.241 0.112 0.339-17.673-0.012-42.744 0.169-46.521 0.433-5.683 0.409-10.229 1.799-11.443 2.873-1.231 1.088-3.125 5.962-3.125 14.339 1e-3 8.377 1.895 13.25 3.125 14.325 1.214 1.089 5.76 2.463 11.443 2.872 3.778 0.277 28.85 0.447 46.522 0.435-0.045 0.091-0.081 0.2-0.113 0.337-0.051 0.215-0.329 1.078-0.533 1.709-0.108 0.335-0.197 0.61-0.225 0.705-0.038 0.161-0.061 0.324 0.02 0.427 0.047 0.06 0.122 0.089 0.222 0.089 0.03 0 0.063-2e-3 0.088-8e-3h0.048 0.011c0.677-0.093 1.215-0.32 1.637-1.131 0.214-0.415 0.53-0.948 0.787-1.373 0.202-0.335 0.366-0.609 0.439-0.76 0.615-1e-3 1.222-2e-3 1.813-3e-3 2.984 0 5.509 0.206 7.671 0.189 4.468-0.048 14.222-0.806 16.021-4.183 0.932-1.753 2.716-8.082 2.716-13.638-1e-3 -5.538-1.785-11.867-2.717-13.62zm-44.764-2.447c6.692-0.142 13.132-0.206 17.537-0.206l-0.648 0.868c-6.597 0.995-12.643 1.768-18.562 1.879 0.505-0.914 1.136-1.878 1.673-2.541zm-36.178 26.108c-0.964 0-1.279-0.315-1.453-1.122-0.584-2.762-0.853-5.635-0.853-8.917 0-3.267 0.268-6.14 0.853-8.902 0.174-0.805 0.489-1.12 1.453-1.12h7.513c1.009 0 1.39 0.441 1.327 1.262-0.253 2.999-0.333 5.494-0.333 8.761 0 3.283 0.08 5.778 0.333 8.776 0.063 0.82-0.317 1.264-1.327 1.264-2.921-2e-3 -5.588-2e-3 -7.513-2e-3zm14.995 3.978l-1.137 0.504c-0.616 0.302-0.931 0.333-1.578 0.269-0.679-0.077-1.295-0.158-1.91-0.269-0.174-0.046-0.711-0.156-1.374-0.315-0.758-0.173-0.79-0.283 0.032-0.331 1.784-0.079 3.725-0.159 5.903-0.204 0.506-1e-3 0.538 0.124 0.064 0.346zm-0.063-27.687c-2.179-0.047-4.12-0.11-5.903-0.205-0.821-0.032-0.79-0.158-0.032-0.331 0.663-0.158 1.2-0.269 1.374-0.3 0.615-0.111 1.23-0.207 1.91-0.269 0.646-0.079 0.962-0.031 1.578 0.252l1.137 0.506c0.473 0.237 0.441 0.364-0.064 0.347zm17.586-2.336c-0.363 0.742-0.679 1.626-0.931 2.495-5.682-0.015-10.212-0.032-14.016-0.079l-0.653-0.941-0.563-0.875c4.642-0.268 10.402-0.457 16.163-0.6zm-15.834 31.412l0.591-0.917 0.624-0.883c3.804-0.062 8.335-0.079 14.018-0.079 0.252 0.853 0.568 1.753 0.931 2.479-5.762-0.127-11.523-0.333-16.164-0.6zm19.494 0.677c-0.537-0.662-1.168-1.624-1.673-2.54 5.919 0.11 11.965 0.868 18.562 1.862l0.648 0.884c-4.404-0.016-10.845-0.063-17.537-0.206zm27.963-2.666c-0.477 1.039-0.672 1.367-1.613 1.367-0.309 0-0.696-0.036-1.183-0.09-1.876-0.211-4.152-0.546-6.789-0.933-1.688-0.248-3.433-0.504-5.272-0.757-1.263-0.176-1.715-0.705-1.614-1.884 0.43-3.845 0.647-7.586 0.647-11.122 0-3.544-0.218-7.28-0.646-11.103-0.102-1.199 0.352-1.727 1.615-1.886 1.811-0.25 3.533-0.504 5.199-0.751 2.665-0.395 4.968-0.734 6.861-0.939 0.513-0.057 0.892-0.092 1.198-0.092 0.931 0 1.125 0.329 1.597 1.369 1.725 3.822 2.723 7.24 2.723 13.402-1e-3 6.18-0.999 9.597-2.723 13.419zm16.324-4.388c-0.646 2.009-1.288 3.386-2.018 4.329-0.743 0.979-1.389 1.266-2.319 1.45-1.162 0.226-3.712 0.286-5.035 0.286-0.22 0-0.295-0.089-0.317-0.162-0.055-0.176 0.134-0.408 0.288-0.518 0.47-0.355 1.601-1.415 2.277-2.047 0.245-0.229 0.428-0.398 0.494-0.458 0.056-0.052 0.104-0.112 0.155-0.177 0.155-0.19 0.33-0.407 0.82-0.565 2.488-0.739 4.379-1.578 5.339-2.369 0.182-0.145 0.285-0.152 0.341-0.072 0.04 0.058 0.032 0.148-0.025 0.303zm0.025-17.741c-0.022 0.031-0.057 0.049-0.096 0.049-0.062 0-0.137-0.042-0.246-0.136-0.958-0.788-2.847-1.627-5.319-2.362-0.507-0.153-0.683-0.374-0.838-0.569-0.051-0.064-0.1-0.126-0.159-0.181-0.062-0.056-0.23-0.212-0.455-0.424-0.642-0.599-1.836-1.714-2.314-2.064-0.153-0.11-0.346-0.348-0.287-0.529 0.024-0.076 0.099-0.167 0.317-0.167 1.788 0 4.039 0.093 5.035 0.302 0.93 0.185 1.573 0.468 2.319 1.433 0.742 0.975 1.382 2.357 2.018 4.35 0.056 0.151 0.065 0.241 0.025 0.298z"/></svg>
