<?xml version="1.0" encoding="UTF-8" standalone="no"?>
<!-- Generator: Adobe Illustrator 16.0.0, SVG Export Plug-In . SVG Version: 6.00 Build 0)  -->

<svg
   xmlns:dc="http://purl.org/dc/elements/1.1/"
   xmlns:cc="http://creativecommons.org/ns#"
   xmlns:rdf="http://www.w3.org/1999/02/22-rdf-syntax-ns#"
   xmlns:svg="http://www.w3.org/2000/svg"
   xmlns="http://www.w3.org/2000/svg"
   xmlns:sodipodi="http://sodipodi.sourceforge.net/DTD/sodipodi-0.dtd"
   xmlns:inkscape="http://www.inkscape.org/namespaces/inkscape"
   version="1.1"
   id="Capa_1"
   x="0px"
   y="0px"
   width="512px"
   height="512px"
   viewBox="0 0 45.95 45.95"
   style="enable-background:new 0 0 45.95 45.95;"
   xml:space="preserve"
   sodipodi:docname="parking-sign.svg"
   inkscape:version="0.92.2 (5c3e80d, 2017-08-06)"><metadata
     id="metadata3791"><rdf:RDF><cc:Work
         rdf:about=""><dc:format>image/svg+xml</dc:format><dc:type
           rdf:resource="http://purl.org/dc/dcmitype/StillImage" /><dc:title></dc:title></cc:Work></rdf:RDF></metadata><defs
     id="defs3789" /><sodipodi:namedview
     pagecolor="#ffffff"
     bordercolor="#666666"
     borderopacity="1"
     objecttolerance="10"
     gridtolerance="10"
     guidetolerance="10"
     inkscape:pageopacity="0"
     inkscape:pageshadow="2"
     inkscape:window-width="1920"
     inkscape:window-height="1000"
     id="namedview3787"
     showgrid="false"
     inkscape:pagecheckerboard="true"
     inkscape:zoom="1.5175781"
     inkscape:cx="65.766669"
     inkscape:cy="255.97641"
     inkscape:window-x="-11"
     inkscape:window-y="-11"
     inkscape:window-maximized="1"
     inkscape:current-layer="g3752" /><g
     id="g3754"><g
       id="g3752"><path
         style="stroke-width:5.85900024;fill:#ffffff;stroke:#ffffff;stroke-opacity:1;stroke-miterlimit:4;stroke-dasharray:none"
         d="M 67.902848,473.43868 C 56.514422,470.67627 46.748522,461.18199 43.841745,450.04681 42.784788,445.99785 42.707171,433.17763 42.671705,256.79022 42.644458,121.27789 42.839578,66.883116 43.361909,64.37838 46.144078,51.037011 57.543538,40.596651 71.297812,38.792879 74.89827,38.320706 134.53563,38.161913 259.42651,38.291961 l 182.85715,0.190407 3.75705,1.436166 c 10.82401,4.137574 18.18153,11.803062 21.39045,22.285842 1.16249,3.797571 1.21028,11.472338 1.21028,194.388674 v 190.43501 l -1.52329,4.40863 c -1.9223,5.56345 -5.65724,11.37553 -9.40759,14.6395 -3.62855,3.15799 -11.00862,6.7484 -15.68158,7.62912 -5.63456,1.06194 -369.718618,0.80248 -374.126132,-0.26663 z m 372.664562,-23.1159 c 1.23059,-0.72484 2.86148,-2.15508 3.6242,-3.17831 l 1.38677,-1.86042 V 256.26358 67.243102 l -1.36473,-1.860419 c -0.7506,-1.023229 -2.38149,-2.378876 -3.62419,-3.012547 -2.13503,-1.088675 -12.33408,-1.152186 -185.18391,-1.153153 l -182.924427,-10e-4 -2.178429,1.482625 c -1.198136,0.815444 -2.798743,2.319814 -3.556906,3.343044 L 65.36731,67.902047 V 256.14716 444.39228 l 1.4452,2.3063 c 1.611447,2.57161 3.51463,3.94429 6.462136,4.66084 1.087259,0.26431 83.669494,0.43573 183.516084,0.38091 180.26334,-0.099 181.55498,-0.10893 183.77668,-1.41755 z"
         id="path3793"
         inkscape:connector-curvature="0"
         transform="scale(0.08974609)" /><path
         style="stroke-width:16.45900069;fill:#ffffff;stroke:#ffffff;stroke-opacity:1;stroke-miterlimit:4;stroke-dasharray:none"
         d="M 162.56165,263.96899 V 124.72973 l 8.40154,-1.11424 c 22.77181,-3.02008 33.40946,-3.73233 62.76448,-4.20245 34.07769,-0.54576 49.81291,0.86011 67.92992,6.06922 16.37831,4.70919 28.27797,11.44108 38.90136,22.00732 10.55389,10.49712 17.04071,22.00305 21.20264,37.60797 1.95941,7.34669 2.02178,8.02013 2.04452,22.07465 0.0203,12.56274 -0.17074,15.38504 -1.43221,21.1548 -6.43727,29.44308 -21.64964,48.76756 -48.4792,61.58376 -11.66788,5.57363 -26.17142,9.63027 -42.60718,11.91723 -6.8575,0.95419 -39.23435,1.24067 -43.98456,0.38919 l -2.80051,-0.502 v 50.74653 50.74653 h -30.9704 -30.9704 z m 99.43359,-10.69714 c 11.66419,-2.21266 19.46646,-5.98586 26.81833,-12.96941 5.32081,-5.05425 9.18832,-11.59507 11.21257,-18.96293 1.65937,-6.03979 1.66736,-19.9048 0.0146,-25.36937 -3.25356,-10.75747 -9.77866,-18.50061 -19.67146,-23.34352 -6.26867,-3.06875 -10.91432,-4.37121 -19.29334,-5.40909 -9.17088,-1.13597 -28.75649,-0.13125 -35.42036,1.81702 -1.08256,0.3165 -1.15315,2.89279 -1.15315,42.08337 v 41.74622 l 2.14157,0.477 c 7.83613,1.74536 25.97255,1.70981 35.35122,-0.0693 z"
         id="path3795"
         inkscape:connector-curvature="0"
         transform="scale(0.08974609)" /><path
         d="M39.128,5.507H6.759c-0.482,0-0.874,0.39-0.874,0.873v33.256c0,0.48,0.391,0.873,0.874,0.873h32.369    c0.481,0,0.873-0.392,0.873-0.873V6.379C40.001,5.897,39.61,5.507,39.128,5.507z M30.395,24.566    c-1.953,1.841-4.857,2.668-8.241,2.668c-0.751,0-1.394-0.038-1.964-0.113v9.082h-5.633v-25.02    c1.772-0.301,4.236-0.527,7.732-0.527c3.534,0,6.046,0.677,7.739,2.031c1.615,1.277,2.703,3.383,2.703,5.863    C32.731,21.033,31.901,23.139,30.395,24.566z"
         fill="#0f4280"
         id="path3750" /><path
         d="M40.001,0H5.949C2.942,0,0.506,2.437,0.506,5.443v35.065c0,3.006,2.437,5.442,5.443,5.442h34.052    c3.007,0,5.442-2.437,5.442-5.442V5.443C45.444,2.436,43.008,0,40.001,0z M42.09,39.635c0,1.637-1.326,2.961-2.961,2.961H6.759    c-1.636,0-2.962-1.326-2.962-2.961V6.379c0-1.635,1.326-2.961,2.962-2.961h32.369c1.636,0,2.961,1.326,2.961,2.961L42.09,39.635    L42.09,39.635z"
         fill="#0f4280"
         id="path3748" /><path
         d="M22.568,14.98c-1.166,0-1.935,0.112-2.378,0.225v7.48c0.506,0.113,1.1,0.15,1.927,0.15c3.045,0,4.924-1.542,4.924-4.134    C27.042,16.37,25.424,14.98,22.568,14.98z"
         fill="#0f4280"
         id="path3746" /></g></g><g
     id="g3756" /><g
     id="g3758" /><g
     id="g3760" /><g
     id="g3762" /><g
     id="g3764" /><g
     id="g3766" /><g
     id="g3768" /><g
     id="g3770" /><g
     id="g3772" /><g
     id="g3774" /><g
     id="g3776" /><g
     id="g3778" /><g
     id="g3780" /><g
     id="g3782" /><g
     id="g3784" /></svg>